<svg aria-hidden="true" style="position: absolute; width: 0; height: 0; overflow: hidden;" version="1.1" xmlns="http://www.w3.org/2000/svg" xmlns:xlink="http://www.w3.org/1999/xlink">
<defs>
<symbol id="icon-logout" viewBox="0 0 32 32">
<path d="M6.667 2.667c-1.060 0-2.078 0.422-2.828 1.172s-1.172 1.768-1.172 2.828v18.667c0 1.060 0.422 2.078 1.172 2.828s1.768 1.172 2.828 1.172h5.333c0.736 0 1.333-0.597 1.333-1.333v0c0-0.736-0.597-1.333-1.333-1.333v0h-5.333c-0.354 0-0.692-0.14-0.943-0.391s-0.391-0.589-0.391-0.943v-18.667c0-0.354 0.14-0.692 0.391-0.943s0.589-0.391 0.943-0.391h5.333c0.736 0 1.333-0.597 1.333-1.333v0c0-0.736-0.597-1.333-1.333-1.333v0h-5.333z"></path>
<path d="M21.372 8c-0.011-0-0.025-0.001-0.038-0.001-0.369 0-0.702 0.15-0.943 0.391v0c-0.241 0.241-0.39 0.575-0.39 0.943s0.149 0.701 0.39 0.943l5.724 5.724-5.724 5.724c-0.241 0.241-0.39 0.575-0.39 0.943s0.149 0.701 0.39 0.943v0c0.241 0.241 0.575 0.39 0.943 0.39s0.701-0.149 0.943-0.39l6.667-6.667c0.241-0.241 0.39-0.575 0.39-0.943s-0.149-0.701-0.39-0.943l-6.667-6.667c-0.232-0.232-0.55-0.38-0.902-0.391l-0.002-0z"></path>
<path d="M12 14.667c-0.736 0-1.333 0.597-1.333 1.333v0c0 0.736 0.597 1.333 1.333 1.333v0h16c0.736 0 1.333-0.597 1.333-1.333v0c0-0.736-0.597-1.333-1.333-1.333v0h-16z"></path>
</symbol>
<symbol id="icon-format" viewBox="0 0 32 32">
<path d="M9.333 12c-0.736 0-1.333 0.597-1.333 1.333v0c0 0.736 0.597 1.333 1.333 1.333v0h18.667c0.736 0 1.333-0.597 1.333-1.333v0c0-0.736-0.597-1.333-1.333-1.333v0h-18.667z"></path>
<path d="M4 6.667c-0.736 0-1.333 0.597-1.333 1.333v0c0 0.736 0.597 1.333 1.333 1.333v0h10.667c0.736 0 1.333-0.597 1.333-1.333v0c0-0.736-0.597-1.333-1.333-1.333v0h-10.667z"></path>
<path d="M9.333 17.333c-0.736 0-1.333 0.597-1.333 1.333v0c0 0.736 0.597 1.333 1.333 1.333v0h6.667c0.736 0 1.333-0.597 1.333-1.333v0c0-0.736-0.597-1.333-1.333-1.333v0h-6.667z"></path>
<path d="M4 22.667c-0.736 0-1.333 0.597-1.333 1.333v0c0 0.736 0.597 1.333 1.333 1.333v0h5.333c0.736 0 1.333-0.597 1.333-1.333v0c0-0.736-0.597-1.333-1.333-1.333v0h-5.333z"></path>
</symbol>
<symbol id="icon-fullscreen" viewBox="0 0 32 32">
<path d="M4.8 0c-1.272 0-2.494 0.506-3.394 1.406s-1.406 2.121-1.406 3.394v4.8c0 0.884 0.716 1.6 1.6 1.6v0c0.884 0 1.6-0.716 1.6-1.6v0-4.8c0-0.425 0.168-0.831 0.469-1.131s0.706-0.469 1.131-0.469h4.8c0.884 0 1.6-0.716 1.6-1.6v0c0-0.884-0.716-1.6-1.6-1.6v0h-4.8zM22.4 0c-0.884 0-1.6 0.716-1.6 1.6v0c0 0.884 0.716 1.6 1.6 1.6v0h4.8c0.425 0 0.831 0.168 1.131 0.469s0.469 0.706 0.469 1.131v4.8c0 0.884 0.716 1.6 1.6 1.6v0c0.884 0 1.6-0.716 1.6-1.6v0-4.8c0-1.272-0.506-2.494-1.406-3.394s-2.121-1.406-3.394-1.406h-4.8zM1.6 20.8c-0.884 0-1.6 0.716-1.6 1.6v0 4.8c0 1.272 0.507 2.494 1.406 3.394s2.121 1.406 3.394 1.406h4.8c0.884 0 1.6-0.716 1.6-1.6v0c0-0.884-0.716-1.6-1.6-1.6v0h-4.8c-0.425 0-0.831-0.168-1.131-0.469s-0.469-0.706-0.469-1.131v-4.8c0-0.884-0.716-1.6-1.6-1.6v0zM30.4 20.8c-0.884 0-1.6 0.716-1.6 1.6v0 4.8c0 0.425-0.168 0.831-0.469 1.131s-0.706 0.469-1.131 0.469h-4.8c-0.884 0-1.6 0.716-1.6 1.6v0c0 0.884 0.716 1.6 1.6 1.6v0h4.8c1.272 0 2.494-0.506 3.394-1.406s1.406-2.121 1.406-3.394v-4.8c0-0.884-0.716-1.6-1.6-1.6v0z"></path>
</symbol>
<symbol id="icon-defaultscreen" viewBox="0 0 32 32">
<path d="M9.6 0c-0.884 0-1.6 0.716-1.6 1.6v0 4.8c0 0.425-0.168 0.831-0.469 1.131s-0.706 0.469-1.131 0.469h-4.8c-0.884 0-1.6 0.716-1.6 1.6v0c0 0.884 0.716 1.6 1.6 1.6v0h4.8c1.272 0 2.494-0.506 3.394-1.406s1.406-2.121 1.406-3.394v-4.8c0-0.884-0.716-1.6-1.6-1.6v0zM22.4 0c-0.884 0-1.6 0.716-1.6 1.6v0 4.8c0 1.272 0.506 2.494 1.406 3.394s2.121 1.406 3.394 1.406h4.8c0.884 0 1.6-0.716 1.6-1.6v0c0-0.884-0.716-1.6-1.6-1.6v0h-4.8c-0.425 0-0.831-0.168-1.131-0.469s-0.469-0.706-0.469-1.131v-4.8c0-0.884-0.716-1.6-1.6-1.6v0zM1.6 20.8c-0.884 0-1.6 0.716-1.6 1.6v0c0 0.884 0.716 1.6 1.6 1.6v0h4.8c0.425 0 0.831 0.168 1.131 0.469s0.469 0.706 0.469 1.131v4.8c0 0.884 0.716 1.6 1.6 1.6v0c0.884 0 1.6-0.716 1.6-1.6v0-4.8c0-1.272-0.507-2.494-1.406-3.394s-2.121-1.406-3.394-1.406h-4.8zM25.6 20.8c-1.272 0-2.494 0.506-3.394 1.406s-1.406 2.121-1.406 3.394v4.8c0 0.884 0.716 1.6 1.6 1.6v0c0.884 0 1.6-0.716 1.6-1.6v0-4.8c0-0.425 0.168-0.831 0.469-1.131s0.706-0.469 1.131-0.469h4.8c0.884 0 1.6-0.716 1.6-1.6v0c0-0.884-0.716-1.6-1.6-1.6v0h-4.8z"></path>
</symbol>
<symbol id="icon-fail" viewBox="0 0 32 32">
<path fill="#cf2c00" style="fill: var(--color1, #cf2c00)" opacity="0.8" d="M16 1.333c-8.084 0-14.667 6.582-14.667 14.667s6.582 14.667 14.667 14.667c8.084 0 14.667-6.582 14.667-14.667s-6.582-14.667-14.667-14.667zM16 4c6.643 0 12 5.357 12 12s-5.357 12-12 12c-6.643 0-12-5.357-12-12s5.357-12 12-12z"></path>
<path fill="#cf2c00" style="fill: var(--color1, #cf2c00)" opacity="0.8" d="M10.667 18.667c-0.736 0-1.333 0.597-1.333 1.333v0c0 0.736 0.597 1.333 1.333 1.333v0h10.667c0.736 0 1.333-0.597 1.333-1.333v0c0-0.736-0.597-1.333-1.333-1.333v0h-10.667z"></path>
<path fill="#cf2c00" style="fill: var(--color1, #cf2c00)" opacity="0.8" d="M12 10.667c-0.736 0-1.333 0.597-1.333 1.333v0c0 0.736 0.597 1.333 1.333 1.333v0h0.013c0.736 0 1.333-0.597 1.333-1.333v0c0-0.736-0.597-1.333-1.333-1.333h-0.013z"></path>
<path fill="#cf2c00" style="fill: var(--color1, #cf2c00)" opacity="0.8" d="M20 10.667c-0.736 0-1.333 0.597-1.333 1.333v0c0 0.736 0.597 1.333 1.333 1.333v0h0.013c0.736 0 1.333-0.597 1.333-1.333v0c0-0.736-0.597-1.333-1.333-1.333h-0.013z"></path>
</symbol>
</defs>
</svg>
